#N canvas 0 22 450 300 12;
#X obj 145 92 mtof~;
#X obj 145 199 +~;
#X obj 175 153 osc~;
#X obj 175 177 *~;
#X obj 210 154 +~;
#X obj 145 333 dac~;
#X obj 175 123 +~;
#X obj 225 66 sig~ 2;
#X obj 190 30 sig~ 2;
#X obj 145 304 *~;
#X obj 240 293 expr~ $v1*$v2;
#X obj 315 195 phasor~ 1;
#X obj 145 64 sig~ 20;
#X obj 145 230 osc~;
#X obj 329 44 loadbang;
#X msg 329 70 \; pd dsp 1;
#X obj 315 271 expr~ modf($v1*2);
#X obj 240 153 expr~ floor($v1*8 \, 0);
#X obj 240 173 expr~ if($v1%2==0 \, 1 \, 0);
#X obj 315 250 expr~ modf($v1*4);
#X obj 315 222 expr~ 1-$v1;
#X obj 240 131 phasor~ 0.125;
#X connect 0 0 1 0;
#X connect 0 0 6 0;
#X connect 1 0 13 0;
#X connect 2 0 3 0;
#X connect 3 0 1 1;
#X connect 4 0 3 1;
#X connect 6 0 2 0;
#X connect 6 0 4 0;
#X connect 7 0 4 1;
#X connect 8 0 6 1;
#X connect 9 0 5 0;
#X connect 9 0 5 1;
#X connect 10 0 9 1;
#X connect 11 0 20 0;
#X connect 12 0 0 0;
#X connect 13 0 9 0;
#X connect 14 0 15 0;
#X connect 16 0 10 1;
#X connect 17 0 18 0;
#X connect 18 0 10 0;
#X connect 19 0 16 0;
#X connect 20 0 19 0;
#X connect 21 0 17 0;
